<svg xmlns="http://www.w3.org/2000/svg" xmlns:xlink="http://www.w3.org/1999/xlink" width="500" zoomAndPan="magnify" viewBox="0 0 375 374.999991" height="500" preserveAspectRatio="xMidYMid meet" version="1.0"><defs><g/><clipPath id="90c151721b"><path d="M 83.683594 83.683594 L 291.433594 83.683594 L 291.433594 291.433594 L 83.683594 291.433594 Z M 83.683594 83.683594 " clip-rule="nonzero"/></clipPath><clipPath id="e6e7abadbe"><path d="M 132 125.785156 L 243 125.785156 L 243 236 L 132 236 Z M 132 125.785156 " clip-rule="nonzero"/></clipPath><clipPath id="dad59733e8"><path d="M 169 136 L 202 136 L 202 249.535156 L 169 249.535156 Z M 169 136 " clip-rule="nonzero"/></clipPath><clipPath id="d9cd894830"><rect x="0" width="141" y="0" height="50"/></clipPath><clipPath id="dbcedeb864"><rect x="0" width="155" y="0" height="56"/></clipPath></defs><rect x="-37.5" width="450" fill="#ffffff" y="-37.499999" height="449.999989" fill-opacity="1"/><rect x="-37.5" width="450" fill="#ffffff" y="-37.499999" height="449.999989" fill-opacity="1"/><g clip-path="url(#90c151721b)"><path fill="#001a6e" d="M 291.304688 187.496094 C 291.304688 189.195312 291.261719 190.890625 291.179688 192.589844 C 291.097656 194.285156 290.972656 195.980469 290.804688 197.671875 C 290.640625 199.359375 290.429688 201.046875 290.183594 202.726562 C 289.933594 204.40625 289.640625 206.082031 289.3125 207.746094 C 288.980469 209.414062 288.605469 211.070312 288.195312 212.71875 C 287.78125 214.367188 287.328125 216.003906 286.835938 217.628906 C 286.34375 219.253906 285.808594 220.867188 285.238281 222.46875 C 284.664062 224.066406 284.054688 225.652344 283.402344 227.222656 C 282.753906 228.789062 282.066406 230.34375 281.339844 231.878906 C 280.613281 233.414062 279.847656 234.933594 279.046875 236.429688 C 278.246094 237.929688 277.410156 239.40625 276.535156 240.863281 C 275.664062 242.320312 274.753906 243.757812 273.808594 245.167969 C 272.867188 246.582031 271.886719 247.96875 270.875 249.335938 C 269.863281 250.699219 268.820312 252.039062 267.742188 253.351562 C 266.664062 254.664062 265.554688 255.949219 264.414062 257.210938 C 263.273438 258.46875 262.101562 259.699219 260.898438 260.898438 C 259.699219 262.101562 258.46875 263.273438 257.210938 264.414062 C 255.949219 265.554688 254.664062 266.664062 253.351562 267.742188 C 252.039062 268.820312 250.699219 269.863281 249.335938 270.875 C 247.96875 271.886719 246.582031 272.867188 245.167969 273.808594 C 243.757812 274.753906 242.320312 275.664062 240.863281 276.535156 C 239.40625 277.410156 237.929688 278.246094 236.429688 279.046875 C 234.933594 279.847656 233.414062 280.613281 231.878906 281.339844 C 230.34375 282.066406 228.789062 282.753906 227.222656 283.402344 C 225.652344 284.054688 224.066406 284.664062 222.46875 285.238281 C 220.867188 285.808594 219.253906 286.34375 217.628906 286.835938 C 216.003906 287.328125 214.367188 287.78125 212.71875 288.195312 C 211.070312 288.605469 209.414062 288.980469 207.746094 289.3125 C 206.082031 289.640625 204.40625 289.933594 202.726562 290.183594 C 201.046875 290.429688 199.359375 290.640625 197.671875 290.804688 C 195.980469 290.972656 194.285156 291.097656 192.589844 291.179688 C 190.890625 291.261719 189.195312 291.304688 187.496094 291.304688 C 185.796875 291.304688 184.097656 291.261719 182.402344 291.179688 C 180.703125 291.097656 179.011719 290.972656 177.320312 290.804688 C 175.628906 290.640625 173.941406 290.429688 172.261719 290.183594 C 170.582031 289.933594 168.910156 289.640625 167.242188 289.3125 C 165.574219 288.980469 163.917969 288.605469 162.269531 288.195312 C 160.621094 287.78125 158.984375 287.328125 157.359375 286.835938 C 155.734375 286.34375 154.121094 285.808594 152.523438 285.238281 C 150.921875 284.664062 149.335938 284.054688 147.769531 283.402344 C 146.199219 282.753906 144.644531 282.066406 143.109375 281.339844 C 141.574219 280.613281 140.058594 279.847656 138.558594 279.046875 C 137.058594 278.246094 135.582031 277.410156 134.125 276.535156 C 132.667969 275.664062 131.234375 274.753906 129.820312 273.808594 C 128.40625 272.867188 127.019531 271.886719 125.65625 270.875 C 124.289062 269.863281 122.953125 268.820312 121.636719 267.742188 C 120.324219 266.664062 119.039062 265.554688 117.78125 264.414062 C 116.519531 263.273438 115.289062 262.101562 114.089844 260.898438 C 112.886719 259.699219 111.71875 258.46875 110.578125 257.210938 C 109.433594 255.949219 108.324219 254.664062 107.25 253.351562 C 106.171875 252.039062 105.125 250.699219 104.113281 249.335938 C 103.101562 247.96875 102.125 246.582031 101.179688 245.167969 C 100.234375 243.757812 99.328125 242.320312 98.453125 240.863281 C 97.578125 239.40625 96.742188 237.929688 95.941406 236.429688 C 95.140625 234.933594 94.378906 233.414062 93.652344 231.878906 C 92.925781 230.34375 92.238281 228.789062 91.585938 227.222656 C 90.9375 225.652344 90.324219 224.066406 89.753906 222.46875 C 89.179688 220.867188 88.648438 219.253906 88.152344 217.628906 C 87.660156 216.003906 87.207031 214.367188 86.796875 212.71875 C 86.382812 211.070312 86.011719 209.414062 85.679688 207.746094 C 85.347656 206.082031 85.058594 204.40625 84.808594 202.726562 C 84.558594 201.046875 84.351562 199.359375 84.183594 197.671875 C 84.015625 195.980469 83.894531 194.285156 83.808594 192.589844 C 83.726562 190.890625 83.683594 189.195312 83.683594 187.496094 C 83.683594 185.796875 83.726562 184.097656 83.808594 182.402344 C 83.894531 180.703125 84.015625 179.011719 84.183594 177.320312 C 84.351562 175.628906 84.558594 173.941406 84.808594 172.261719 C 85.058594 170.582031 85.347656 168.910156 85.679688 167.242188 C 86.011719 165.574219 86.382812 163.917969 86.796875 162.269531 C 87.207031 160.621094 87.660156 158.984375 88.152344 157.359375 C 88.648438 155.734375 89.179688 154.121094 89.753906 152.523438 C 90.324219 150.921875 90.9375 149.335938 91.585938 147.769531 C 92.238281 146.199219 92.925781 144.644531 93.652344 143.109375 C 94.378906 141.574219 95.140625 140.058594 95.941406 138.558594 C 96.742188 137.058594 97.578125 135.582031 98.453125 134.125 C 99.328125 132.667969 100.234375 131.234375 101.179688 129.820312 C 102.125 128.40625 103.101562 127.019531 104.113281 125.65625 C 105.125 124.289062 106.171875 122.953125 107.25 121.636719 C 108.324219 120.324219 109.433594 119.039062 110.578125 117.78125 C 111.71875 116.519531 112.886719 115.289062 114.089844 114.089844 C 115.289062 112.886719 116.519531 111.71875 117.78125 110.578125 C 119.039062 109.433594 120.324219 108.324219 121.636719 107.25 C 122.953125 106.171875 124.289062 105.125 125.65625 104.113281 C 127.019531 103.101562 128.40625 102.125 129.820312 101.179688 C 131.234375 100.234375 132.667969 99.328125 134.125 98.453125 C 135.582031 97.578125 137.058594 96.742188 138.558594 95.941406 C 140.058594 95.140625 141.574219 94.378906 143.109375 93.652344 C 144.644531 92.925781 146.199219 92.238281 147.769531 91.585938 C 149.335938 90.9375 150.921875 90.324219 152.523438 89.753906 C 154.121094 89.179688 155.734375 88.648438 157.359375 88.152344 C 158.984375 87.660156 160.621094 87.207031 162.269531 86.796875 C 163.917969 86.382812 165.574219 86.011719 167.242188 85.679688 C 168.910156 85.347656 170.582031 85.058594 172.261719 84.808594 C 173.941406 84.558594 175.628906 84.351562 177.320312 84.183594 C 179.011719 84.015625 180.703125 83.894531 182.402344 83.808594 C 184.097656 83.726562 185.796875 83.683594 187.496094 83.683594 C 189.195312 83.683594 190.890625 83.726562 192.589844 83.808594 C 194.285156 83.894531 195.980469 84.015625 197.671875 84.183594 C 199.359375 84.351562 201.046875 84.558594 202.726562 84.808594 C 204.40625 85.058594 206.082031 85.347656 207.746094 85.679688 C 209.414062 86.011719 211.070312 86.382812 212.71875 86.796875 C 214.367188 87.207031 216.003906 87.660156 217.628906 88.152344 C 219.253906 88.648438 220.867188 89.179688 222.46875 89.753906 C 224.066406 90.324219 225.652344 90.9375 227.222656 91.585938 C 228.789062 92.238281 230.34375 92.925781 231.878906 93.652344 C 233.414062 94.378906 234.933594 95.140625 236.429688 95.941406 C 237.929688 96.742188 239.40625 97.578125 240.863281 98.453125 C 242.320312 99.328125 243.757812 100.234375 245.167969 101.179688 C 246.582031 102.125 247.96875 103.101562 249.335938 104.113281 C 250.699219 105.125 252.039062 106.171875 253.351562 107.25 C 254.664062 108.324219 255.949219 109.433594 257.210938 110.578125 C 258.46875 111.71875 259.699219 112.886719 260.898438 114.089844 C 262.101562 115.289062 263.273438 116.519531 264.414062 117.78125 C 265.554688 119.039062 266.664062 120.324219 267.742188 121.636719 C 268.820312 122.953125 269.863281 124.289062 270.875 125.65625 C 271.886719 127.019531 272.867188 128.40625 273.808594 129.820312 C 274.753906 131.234375 275.664062 132.667969 276.535156 134.125 C 277.410156 135.582031 278.246094 137.058594 279.046875 138.558594 C 279.847656 140.058594 280.613281 141.574219 281.339844 143.109375 C 282.066406 144.644531 282.753906 146.199219 283.402344 147.769531 C 284.054688 149.335938 284.664062 150.921875 285.238281 152.523438 C 285.808594 154.121094 286.34375 155.734375 286.835938 157.359375 C 287.328125 158.984375 287.78125 160.621094 288.195312 162.269531 C 288.605469 163.917969 288.980469 165.574219 289.3125 167.242188 C 289.640625 168.910156 289.933594 170.582031 290.183594 172.261719 C 290.429688 173.941406 290.640625 175.628906 290.804688 177.320312 C 290.972656 179.011719 291.097656 180.703125 291.179688 182.402344 C 291.261719 184.097656 291.304688 185.796875 291.304688 187.496094 Z M 291.304688 187.496094 " fill-opacity="1" fill-rule="nonzero"/></g><path fill="#009491" d="M 187.496094 281.402344 C 135.667969 281.402344 93.585938 239.324219 93.585938 187.496094 C 93.585938 135.667969 135.667969 93.585938 187.496094 93.585938 C 239.324219 93.585938 281.402344 135.667969 281.402344 187.496094 C 281.402344 239.324219 239.324219 281.402344 187.496094 281.402344 Z M 187.496094 95.90625 C 136.90625 95.90625 95.90625 136.90625 95.90625 187.496094 C 95.90625 238.085938 137.058594 279.082031 187.496094 279.082031 C 238.085938 279.082031 279.082031 237.929688 279.082031 187.496094 C 279.082031 136.90625 238.085938 95.90625 187.496094 95.90625 Z M 187.496094 95.90625 " fill-opacity="1" fill-rule="nonzero"/><path fill="#e1ffbb" d="M 210.441406 140.09375 L 213.945312 142.929688 C 215.25 143.914062 216.503906 144.792969 217.796875 145.574219 C 219.109375 146.363281 220.664062 147.328125 222.074219 147.808594 C 222.925781 148.101562 227.023438 148.734375 227.394531 147.445312 C 227.085938 146.964844 226.085938 146.769531 225.25 146.324219 C 221.835938 144.511719 220.355469 143.640625 217.210938 141.128906 C 216.570312 140.621094 215.996094 140.191406 215.375 139.652344 C 214.710938 139.070312 214.191406 138.667969 213.609375 138.105469 C 213.171875 137.679688 212.28125 136.90625 211.691406 136.722656 C 211.488281 137.027344 211.300781 137.863281 211.109375 138.363281 C 210.824219 139.097656 210.519531 139.339844 210.441406 140.09375 " fill-opacity="1" fill-rule="evenodd"/><path fill="#e1ffbb" d="M 207.296875 143.335938 C 207.742188 144.226562 214.722656 150.058594 217.519531 150.058594 C 218.667969 150.058594 219.625 150.1875 220.558594 149.828125 C 220.363281 149.277344 220.4375 149.445312 219.238281 148.78125 L 216.289062 146.960938 C 214.601562 145.761719 213.824219 145.046875 212.246094 143.710938 C 211.511719 143.089844 210.503906 141.703125 209.679688 141.359375 C 209.082031 141.707031 208.9375 142.183594 207.960938 142.777344 C 207.472656 143.074219 207.53125 142.90625 207.296875 143.335938 " fill-opacity="1" fill-rule="evenodd"/><path fill="#e1ffbb" d="M 212.722656 150.894531 C 212.683594 149.957031 210.777344 148.996094 210.136719 148.335938 C 209.820312 148.011719 209.597656 147.792969 209.277344 147.472656 L 206.03125 143.894531 C 205.382812 143.996094 204.578125 144.296875 203.976562 144.375 C 203.21875 144.472656 202.558594 144.128906 203.265625 145.414062 C 204.609375 147.859375 210.269531 152.375 212.722656 150.894531 " fill-opacity="1" fill-rule="evenodd"/><g clip-path="url(#e6e7abadbe)"><path fill="#e1ffbb" d="M 158.71875 150.894531 C 161.042969 152.296875 165.460938 148.546875 167 147.011719 C 167.328125 146.683594 167.65625 146.152344 167.914062 145.804688 L 168.441406 144.78125 C 168.558594 144.3125 168.578125 144.480469 167.710938 144.394531 C 166.796875 144.300781 166.253906 144.027344 165.410156 143.894531 C 164.753906 144.410156 164.433594 145.089844 163.835938 145.699219 L 161.300781 148.335938 C 160.664062 148.996094 158.757812 149.957031 158.71875 150.894531 Z M 150.878906 149.828125 C 152.699219 150.527344 155.328125 149.851562 157.042969 148.972656 C 158.042969 148.453125 158.738281 147.882812 159.5625 147.265625 C 160.347656 146.675781 163.863281 143.894531 164.140625 143.335938 C 163.835938 142.765625 163.816406 143.101562 162.945312 142.390625 C 162.109375 141.710938 162.335938 141.691406 161.761719 141.359375 C 160.976562 141.6875 159.945312 143.046875 159.265625 143.648438 C 156.023438 146.527344 155.03125 147.164062 151.535156 149.171875 C 150.96875 149.496094 151.082031 149.265625 150.878906 149.828125 Z M 144.046875 147.445312 C 144.308594 148.367188 145.554688 148.085938 146.566406 148.195312 C 147.257812 148.265625 148.578125 148.066406 149.265625 147.84375 C 150.691406 147.382812 152.230469 146.421875 153.558594 145.621094 C 155.292969 144.578125 157.554688 142.9375 159.230469 141.625 C 159.878906 141.121094 160.359375 140.578125 160.996094 140.09375 L 159.75 136.722656 C 159.15625 136.910156 158.347656 137.621094 157.898438 138.039062 C 156.601562 139.246094 153.890625 141.484375 152.425781 142.5 L 144.347656 147.136719 C 143.992188 147.382812 144.246094 147.132812 144.046875 147.445312 Z M 186.382812 125.914062 C 184.535156 125.914062 183.796875 125.824219 182.300781 127.457031 C 180.648438 129.257812 180.929688 131.949219 182.59375 133.605469 C 186.570312 137.578125 192.847656 131.707031 189.203125 127.523438 C 188.683594 126.933594 187.585938 125.914062 186.382812 125.914062 Z M 193.617188 132.46875 C 193.617188 135.769531 197.214844 137.210938 197.214844 138.433594 C 197.214844 139.949219 196.894531 140.847656 195.664062 142.019531 C 193.992188 143.613281 191.628906 143.402344 189.507812 142.867188 L 189.335938 149.863281 C 189.511719 150.351562 192.058594 150.835938 192.871094 150.835938 C 194.738281 150.828125 195.359375 150.613281 196.671875 150.039062 C 198.519531 149.226562 200.9375 147.136719 200.9375 144.792969 C 200.9375 143.980469 200.640625 144.285156 200.324219 143.691406 C 199.070312 141.320312 205.214844 144.949219 208.75 139.207031 C 209.160156 138.539062 209.148438 138.34375 209.445312 137.648438 C 209.695312 137.074219 209.785156 136.53125 209.878906 135.855469 C 209.925781 135.527344 209.9375 135.214844 209.964844 134.875 C 210.035156 134.019531 209.769531 134.035156 210.058594 132.976562 C 211.003906 132.984375 211.039062 133.304688 211.496094 133.996094 C 212.441406 135.421875 213.949219 136.667969 215.339844 137.695312 C 218.320312 139.894531 226.625 145.144531 229.789062 145.625 C 230.578125 145.746094 231.234375 145.808594 232.050781 145.867188 C 233.261719 145.949219 235.292969 145.636719 235.613281 144.664062 C 235.179688 144.214844 233.609375 143.613281 232.941406 143.300781 C 227.179688 140.621094 222.488281 137.566406 217.4375 133.742188 L 209.929688 128.660156 C 208.074219 127.539062 206.519531 126.648438 203.953125 126.335938 C 201.449219 126.027344 198.652344 126.09375 196.804688 127.125 C 195.074219 128.09375 193.617188 130.613281 193.617188 132.46875 Z M 135.828125 144.664062 C 136.140625 145.625 138.121094 145.929688 139.289062 145.875 C 141.183594 145.785156 141.789062 145.660156 143.476562 145.082031 C 144.679688 144.671875 145.828125 144.019531 146.796875 143.511719 C 149.941406 141.882812 156.238281 137.949219 158.753906 135.445312 C 159.144531 135.054688 159.566406 134.558594 159.890625 134.074219 C 160.371094 133.371094 160.40625 132.984375 161.382812 132.976562 C 161.699219 134.097656 161.175781 135.75 161.949219 137.5625 C 162.800781 139.542969 163.609375 141.175781 166.070312 142.164062 C 169.101562 143.386719 172.023438 141.976562 171.113281 143.691406 C 170.699219 144.476562 170.5 143.734375 170.5 145.191406 C 170.5 147.074219 173.0625 149.289062 174.765625 150.039062 C 178.332031 151.601562 181.90625 150.332031 182.058594 149.863281 L 181.96875 142.867188 C 179.160156 143.535156 176.535156 143.609375 174.816406 140.855469 C 172.371094 136.933594 177.820312 136.789062 177.820312 132.46875 C 177.820312 130.632812 176.390625 128.148438 174.71875 127.175781 C 172.925781 126.128906 170.160156 126.039062 167.601562 126.320312 C 165.046875 126.601562 163.441406 127.496094 161.59375 128.609375 C 160.75 129.113281 159.949219 129.632812 159.078125 130.21875 C 158.21875 130.800781 157.445312 131.4375 156.546875 131.921875 C 156.113281 132.15625 155.816406 132.453125 155.394531 132.75 L 146.722656 138.800781 C 142.242188 141.539062 141.921875 141.753906 137.132812 143.917969 C 136.691406 144.117188 136.160156 144.316406 135.828125 144.664062 Z M 168.625 220.589844 C 167.800781 220.589844 166.980469 220.246094 166.398438 219.578125 C 161.636719 214.109375 158.683594 207.394531 157.859375 200.164062 C 156.835938 191.21875 159.191406 182.300781 164.496094 175.035156 C 165.375 173.835938 167.050781 173.34375 168.359375 174.054688 C 169.96875 174.925781 170.386719 176.976562 169.339844 178.398438 C 164.851562 184.488281 162.855469 191.980469 163.714844 199.496094 C 164.390625 205.4375 166.785156 210.953125 170.644531 215.472656 C 171.664062 216.671875 171.859375 218.480469 170.789062 219.636719 C 170.199219 220.277344 169.40625 220.589844 168.625 220.589844 Z M 206.363281 220.589844 C 205.582031 220.589844 204.789062 220.277344 204.195312 219.636719 C 203.128906 218.480469 203.324219 216.671875 204.34375 215.472656 C 208.203125 210.949219 210.597656 205.433594 211.277344 199.5 C 212.125 192.070312 210.183594 184.664062 205.804688 178.617188 C 204.921875 177.390625 204.851562 175.65625 205.917969 174.585938 C 207.226562 173.269531 209.332031 173.46875 210.394531 174.902344 C 215.765625 182.191406 218.15625 191.164062 217.128906 200.164062 C 216.304688 207.394531 213.351562 214.109375 208.585938 219.578125 C 208.003906 220.246094 207.1875 220.589844 206.363281 220.589844 Z M 216.699219 228.316406 C 215.925781 228.316406 215.144531 228.011719 214.550781 227.382812 C 213.492188 226.265625 213.625 224.484375 214.597656 223.289062 C 219.796875 216.898438 223.039062 209.179688 223.976562 200.949219 C 225.230469 189.976562 222.292969 179.082031 215.707031 170.238281 C 214.808594 169.027344 214.738281 167.292969 215.792969 166.21875 C 217.089844 164.898438 219.195312 165.074219 220.265625 166.496094 C 227.867188 176.585938 231.265625 189.058594 229.832031 201.617188 C 228.753906 211.070312 225 219.929688 218.976562 227.242188 C 218.394531 227.949219 217.550781 228.316406 216.699219 228.316406 Z M 158.285156 228.316406 C 157.433594 228.316406 156.59375 227.949219 156.011719 227.242188 C 149.988281 219.929688 146.234375 211.070312 145.15625 201.613281 C 143.730469 189.117188 147.089844 176.703125 154.617188 166.636719 C 155.507812 165.445312 157.183594 164.957031 158.488281 165.679688 C 160.09375 166.570312 160.496094 168.628906 159.429688 170.042969 C 152.742188 178.917969 149.75 189.894531 151.011719 200.949219 C 151.953125 209.179688 155.191406 216.898438 160.390625 223.289062 C 161.363281 224.484375 161.496094 226.265625 160.4375 227.382812 C 159.84375 228.011719 159.0625 228.316406 158.285156 228.316406 Z M 148.503906 235.472656 C 147.640625 235.472656 146.785156 235.09375 146.203125 234.371094 C 138.96875 225.371094 134.445312 214.515625 133.132812 202.984375 C 131.371094 187.570312 135.464844 172.21875 144.664062 159.734375 C 145.550781 158.53125 147.222656 158.023438 148.535156 158.738281 C 150.148438 159.613281 150.566406 161.671875 149.511719 163.09375 C 141.125 174.398438 137.390625 188.328125 138.984375 202.316406 C 140.164062 212.648438 144.1875 222.375 150.625 230.464844 C 151.582031 231.667969 151.695312 233.445312 150.636719 234.554688 C 150.042969 235.171875 149.269531 235.472656 148.503906 235.472656 Z M 226.488281 235.472656 C 225.71875 235.472656 224.941406 235.171875 224.351562 234.554688 C 223.292969 233.445312 223.40625 231.667969 224.363281 230.464844 C 230.800781 222.375 234.824219 212.648438 236.003906 202.320312 C 237.589844 188.410156 233.90625 174.5625 225.625 163.292969 C 224.730469 162.078125 224.679688 160.34375 225.738281 159.273438 C 227.039062 157.960938 229.148438 158.148438 230.210938 159.582031 C 239.488281 172.089844 243.625 187.507812 241.859375 202.984375 C 240.542969 214.515625 236.023438 225.367188 228.785156 234.371094 C 228.203125 235.09375 227.347656 235.472656 226.488281 235.472656 " fill-opacity="1" fill-rule="nonzero"/></g><g clip-path="url(#dad59733e8)"><path fill="#009491" d="M 185.71875 226.027344 C 186.914062 225.160156 186.253906 224.285156 186.449219 222.632812 C 186.589844 221.449219 186.5 219.894531 186.667969 218.753906 C 185.769531 217.992188 185.671875 217.992188 184.769531 218.753906 C 184.964844 219.324219 184.890625 221.78125 184.992188 222.632812 C 185.183594 224.285156 184.527344 225.160156 185.71875 226.027344 Z M 185.667969 249.160156 C 186.148438 248.644531 185.914062 245.25 185.910156 244.464844 L 186.113281 240.054688 C 186.296875 238.796875 186.15625 236.683594 186.164062 235.316406 C 186.167969 234.5 186.296875 233.992188 186.296875 233.070312 C 186.300781 232.285156 186.535156 231.375 185.71875 231.375 C 184.636719 231.375 185.28125 233.953125 185.273438 235.453125 C 185.269531 236.746094 185.152344 238.867188 185.324219 240.054688 C 185.570312 241.730469 185.332031 248.367188 185.667969 249.160156 Z M 181.027344 240.175781 C 180.835938 239.566406 180.597656 237.738281 180.613281 237.09375 C 180.703125 233.226562 184.484375 231.886719 185.261719 231.082031 L 182.671875 229.578125 C 182.039062 229.988281 181.109375 230.980469 180.554688 231.613281 C 177.792969 234.75 179.824219 239.660156 181.027344 240.175781 Z M 184.371094 199.136719 L 184.628906 209.476562 C 184.921875 209.9375 185.285156 210.054688 185.71875 210.296875 C 186.152344 210.054688 186.515625 209.9375 186.8125 209.476562 C 186.8125 205.957031 187.070312 202.429688 187.070312 198.875 C 186.699219 198.511719 186.167969 198.160156 185.71875 197.90625 C 185.34375 198.121094 184.371094 198.648438 184.371094 199.136719 Z M 183.859375 177.53125 L 183.859375 180.847656 C 183.859375 181.296875 183.988281 182.246094 183.988281 182.96875 L 184.113281 189.890625 C 186.222656 190.945312 185.21875 190.945312 187.324219 189.890625 L 187.582031 177.53125 C 187.550781 177.382812 186.273438 176.160156 184.734375 176.953125 C 184.527344 177.058594 184.425781 177.085938 184.28125 177.160156 C 183.769531 177.421875 184.042969 177.121094 183.859375 177.53125 Z M 198.175781 158.441406 C 199.039062 159.246094 198.503906 162.015625 198.128906 162.894531 C 196.277344 167.269531 191.324219 168.378906 187.496094 169.636719 C 187.171875 169.742188 186.703125 169.820312 186.433594 169.929688 C 188.425781 170.609375 190.039062 171.101562 191.9375 172.253906 C 193.257812 173.054688 192.925781 173.007812 193.652344 172.628906 C 196.527344 171.117188 196.511719 170.746094 198.394531 169.394531 C 200.234375 168.078125 202.113281 164.78125 201.964844 162.441406 C 201.796875 159.773438 199.992188 157.214844 197.558594 156.289062 C 195.445312 155.484375 195.175781 155.710938 192.746094 155.710938 C 192.367188 155.710938 187.632812 156.699219 192.121094 159.324219 C 195.765625 161.460938 197.5 158.542969 198.175781 158.441406 Z M 182.574219 221.40625 C 182.574219 219.578125 184.515625 218.578125 185.203125 217.960938 C 184.949219 217.609375 183.070312 216.605469 182.660156 216.375 L 180.15625 214.792969 C 179.449219 215.195312 178.324219 216.746094 177.835938 217.882812 C 177.117188 219.554688 177.027344 220.675781 177.320312 222.574219 C 177.496094 223.71875 178.363281 225.300781 179.085938 226.050781 C 179.964844 226.96875 180.773438 227.734375 181.878906 228.558594 C 185.386719 231.160156 191.527344 232.734375 190.78125 237.972656 C 190.683594 238.65625 190.609375 239.550781 190.410156 240.175781 C 190.789062 240.113281 190.648438 240.105469 190.917969 239.726562 C 191.921875 238.3125 192.484375 236.527344 192.226562 234.78125 C 191.835938 232.183594 190.855469 231.589844 189.359375 230.089844 C 187.167969 227.894531 185.820312 226.960938 183.75 224.304688 C 183 223.339844 182.574219 222.742188 182.574219 221.40625 Z M 183.601562 169.195312 C 184.324219 169.269531 184.945312 169.695312 185.71875 169.695312 C 186.492188 169.695312 187.117188 169.269531 187.839844 169.195312 C 187.839844 162.972656 188.246094 157.027344 188.222656 150.625 C 188.21875 149.773438 188.355469 149.449219 188.355469 148.644531 C 188.363281 147.25 188.296875 145.773438 188.351562 144.394531 C 188.472656 141.097656 188.6875 139.914062 188.601562 136.210938 L 182.835938 136.191406 C 182.8125 137.390625 182.722656 139.117188 182.882812 140.226562 C 182.980469 140.914062 182.960938 141.542969 182.957031 142.277344 C 182.953125 143.121094 183.074219 143.515625 183.089844 144.257812 C 183.148438 147.128906 183.214844 149.820312 183.214844 152.617188 C 183.214844 158.25 183.601562 163.546875 183.601562 169.195312 Z M 180.519531 203.246094 C 180.519531 202.910156 181.125 201.648438 181.304688 201.359375 C 181.769531 200.601562 183.191406 199.34375 183.90625 198.785156 C 184.292969 198.480469 185.042969 198.035156 185.261719 197.679688 C 184.980469 197.296875 180.515625 194.515625 180.15625 194.371094 L 178.367188 195.625 C 177.789062 196.070312 177.238281 196.554688 176.746094 197.050781 C 172.046875 201.808594 174.347656 208.667969 178.21875 212.605469 L 180.65625 214.675781 C 184.628906 217.621094 191.710938 219.273438 187.707031 224.320312 L 186.0625 226.308594 C 186.289062 226.734375 188.363281 228.910156 188.902344 229.035156 C 191.070312 227.59375 193.066406 225.746094 193.949219 223.304688 C 194.460938 221.890625 194.363281 219.652344 193.859375 218.453125 C 192.296875 214.722656 189.023438 212.628906 185.421875 210.570312 C 184.421875 209.996094 183.039062 209.089844 182.261719 208.296875 C 180.710938 206.730469 180.519531 205.367188 180.519531 203.246094 Z M 192.460938 182.835938 C 192.460938 185.230469 191.746094 186.53125 190.121094 188.167969 C 188.542969 189.761719 187.109375 190.195312 186.183594 190.976562 C 187.515625 191.800781 189.5 192.789062 190.390625 193.414062 C 191.515625 194.203125 191.566406 193.746094 192.503906 193.074219 C 195.144531 191.195312 197.695312 188.886719 198.53125 185.542969 C 199.230469 182.734375 199.191406 180.382812 197.558594 177.742188 C 195.121094 173.792969 190.304688 171.390625 186.003906 170.214844 C 181.691406 169.035156 175.777344 167.574219 173.679688 163.605469 C 173.148438 162.605469 173.113281 162.261719 172.921875 161.136719 C 172.785156 160.347656 172.65625 159.011719 173.265625 158.441406 C 173.886719 158.535156 175.101562 160.640625 177.8125 159.96875 C 179.136719 159.636719 183.058594 157.371094 180.28125 156.210938 C 178.171875 155.328125 175.425781 155.523438 173.328125 156.53125 C 171.097656 157.597656 169.152344 160.691406 169.53125 163.269531 C 169.828125 165.304688 171.25 167.988281 172.527344 168.992188 C 173.539062 169.785156 174.519531 170.660156 175.609375 171.332031 C 178.523438 173.125 181.785156 174.667969 185.164062 175.945312 C 187.671875 176.886719 190.128906 178.105469 191.492188 180.25 C 191.820312 180.773438 192.460938 182.191406 192.460938 182.835938 Z M 178.976562 182.835938 C 178.976562 186.132812 180.671875 187.902344 183.230469 189.699219 C 189.1875 193.882812 199.089844 195.886719 197 205.933594 C 196.699219 207.390625 195.640625 209.457031 194.835938 210.632812 C 194.40625 211.265625 193.898438 211.855469 193.285156 212.535156 C 192.734375 213.144531 192.0625 213.613281 191.46875 214.148438 C 190.933594 214 189.398438 212.699219 188.855469 212.300781 C 188.375 211.949219 187.957031 211.734375 187.488281 211.417969 C 187.070312 211.136719 186.519531 210.875 186.175781 210.539062 C 186.390625 210.324219 186.617188 210.191406 186.914062 210.011719 C 187.320312 209.769531 187.34375 209.71875 187.707031 209.488281 C 189.226562 208.515625 190.921875 206.523438 190.921875 204.707031 C 190.921875 203.214844 190.929688 202.328125 189.867188 200.960938 C 188.640625 199.390625 185.046875 196.921875 183.203125 195.816406 L 180.019531 193.84375 C 177.171875 191.933594 174.824219 190.1875 173.367188 186.851562 C 171.757812 183.167969 172.359375 179.550781 174.769531 176.519531 L 176.414062 174.722656 C 176.652344 174.511719 177.15625 174.195312 177.417969 174 C 177.75 173.753906 178.085938 173.535156 178.414062 173.339844 C 179.441406 173.886719 180.410156 174.375 181.617188 174.867188 C 182.339844 175.164062 184.679688 176.207031 185.1875 176.261719 C 184.691406 176.839844 181.683594 177.421875 179.847656 180.414062 C 179.5625 180.882812 178.976562 182.269531 178.976562 182.835938 " fill-opacity="1" fill-rule="evenodd"/></g><g transform="matrix(1, 0, 0, 1, 116, 93)"><g clip-path="url(#d9cd894830)"><g fill="#e1ffbb" fill-opacity="1"><g transform="translate(15.525577, 44.035924)"><g><path d="M 2.859375 2.4375 C 2.429688 2.863281 2.015625 3.203125 1.609375 3.453125 L 0 1.875 C 0.414062 1.625 0.757812 1.359375 1.03125 1.078125 C 1.445312 0.648438 1.609375 0.21875 1.515625 -0.21875 C 1.429688 -0.65625 1.113281 -1.148438 0.5625 -1.703125 L -7.984375 -10.09375 L -6.078125 -12.03125 L 2.4375 -3.65625 C 3.5 -2.613281 4.066406 -1.570312 4.140625 -0.53125 C 4.222656 0.5 3.796875 1.488281 2.859375 2.4375 Z M 2.859375 2.4375 "/></g></g></g><g fill="#e1ffbb" fill-opacity="1"><g transform="translate(18.922789, 40.147633)"><g><path d="M 6.375 -13.203125 C 7.675781 -11.546875 8.269531 -9.945312 8.15625 -8.40625 C 8.039062 -6.863281 7.21875 -5.488281 5.6875 -4.28125 C 4.15625 -3.0625 2.625 -2.570312 1.09375 -2.8125 C -0.4375 -3.050781 -1.859375 -4.003906 -3.171875 -5.671875 C -4.484375 -7.328125 -5.078125 -8.921875 -4.953125 -10.453125 C -4.828125 -11.992188 -4 -13.375 -2.46875 -14.59375 C -0.914062 -15.8125 0.613281 -16.300781 2.125 -16.0625 C 3.632812 -15.820312 5.050781 -14.867188 6.375 -13.203125 Z M -0.9375 -7.421875 C -0.0625 -6.304688 0.8125 -5.632812 1.6875 -5.40625 C 2.570312 -5.175781 3.4375 -5.394531 4.28125 -6.0625 C 5.96875 -7.394531 5.921875 -9.1875 4.140625 -11.4375 C 2.359375 -13.6875 0.625 -14.144531 -1.0625 -12.8125 C -1.894531 -12.144531 -2.300781 -11.359375 -2.28125 -10.453125 C -2.269531 -9.546875 -1.820312 -8.535156 -0.9375 -7.421875 Z M -0.9375 -7.421875 "/></g></g></g><g fill="#e1ffbb" fill-opacity="1"><g transform="translate(29.300233, 31.94663)"><g><path d="M 0.296875 -8.296875 L 1.0625 -8.71875 C 1.800781 -9.132812 2.28125 -9.566406 2.5 -10.015625 C 2.71875 -10.460938 2.675781 -10.957031 2.375 -11.5 C 2.070312 -12.019531 1.679688 -12.289062 1.203125 -12.3125 C 0.722656 -12.332031 0.0976562 -12.128906 -0.671875 -11.703125 L -1.375 -11.3125 Z M 1.375 -6.375 L 3.765625 -2.109375 L 1.40625 -0.78125 L -4.828125 -11.921875 L -1.578125 -13.734375 C -0.0664062 -14.578125 1.203125 -14.925781 2.234375 -14.78125 C 3.273438 -14.644531 4.109375 -14.015625 4.734375 -12.890625 C 5.097656 -12.234375 5.242188 -11.550781 5.171875 -10.84375 C 5.097656 -10.132812 4.804688 -9.445312 4.296875 -8.78125 C 7.378906 -7.207031 9.378906 -6.195312 10.296875 -5.75 L 7.671875 -4.296875 L 2.625 -7.078125 Z M 1.375 -6.375 "/></g></g></g><g fill="#e1ffbb" fill-opacity="1"><g transform="translate(38.719727, 26.547226)"><g><path d="M 3.53125 -8.984375 L 8.265625 -10.75 L 10.59375 -4.546875 C 9.914062 -3.992188 9.253906 -3.546875 8.609375 -3.203125 C 7.972656 -2.859375 7.300781 -2.550781 6.59375 -2.28125 C 4.78125 -1.601562 3.203125 -1.613281 1.859375 -2.3125 C 0.515625 -3.019531 -0.523438 -4.363281 -1.265625 -6.34375 C -1.992188 -8.28125 -2.003906 -9.992188 -1.296875 -11.484375 C -0.597656 -12.984375 0.726562 -14.097656 2.6875 -14.828125 C 3.914062 -15.285156 5.191406 -15.484375 6.515625 -15.421875 L 6.421875 -13.0625 C 5.398438 -13.175781 4.414062 -13.054688 3.46875 -12.703125 C 2.375 -12.296875 1.628906 -11.597656 1.234375 -10.609375 C 0.847656 -9.628906 0.890625 -8.519531 1.359375 -7.28125 C 1.835938 -5.988281 2.472656 -5.097656 3.265625 -4.609375 C 4.054688 -4.128906 4.953125 -4.078125 5.953125 -4.453125 C 6.492188 -4.648438 7.019531 -4.90625 7.53125 -5.21875 L 6.59375 -7.703125 L 4.328125 -6.859375 Z M 3.53125 -8.984375 "/></g></g></g><g fill="#e1ffbb" fill-opacity="1"><g transform="translate(50.025573, 22.365559)"><g><path d="M 8.75 -1.921875 L 1.578125 -0.34375 L -1.171875 -12.8125 L 6 -14.390625 L 6.484375 -12.21875 L 1.953125 -11.21875 L 2.5625 -8.46875 L 6.765625 -9.40625 L 7.234375 -7.265625 L 3.03125 -6.328125 L 3.734375 -3.109375 L 8.265625 -4.109375 Z M 8.75 -1.921875 "/></g></g></g><g fill="#e1ffbb" fill-opacity="1"><g transform="translate(59.259991, 20.431215)"><g/></g></g><g fill="#e1ffbb" fill-opacity="1"><g transform="translate(63.192495, 19.694553)"><g><path d="M 9.421875 -0.203125 L 8.4375 -3.21875 L 3.78125 -3.109375 L 2.921875 -0.0625 L 0 0 L 4.21875 -12.90625 L 7.53125 -12.984375 L 12.328125 -0.265625 Z M 7.734375 -5.484375 C 6.816406 -8.210938 6.296875 -9.753906 6.171875 -10.109375 C 6.054688 -10.472656 5.976562 -10.757812 5.9375 -10.96875 C 5.75 -10.21875 5.238281 -8.363281 4.40625 -5.40625 Z M 7.734375 -5.484375 "/></g></g></g><g fill="#e1ffbb" fill-opacity="1"><g transform="translate(74.503317, 19.270271)"><g><path d="M 12.796875 1.84375 L 9.390625 1.359375 L 5.265625 -9 L 5.1875 -9.015625 C 5.0625 -7.296875 4.945312 -6.078125 4.84375 -5.359375 L 3.984375 0.578125 L 1.59375 0.234375 L 3.421875 -12.40625 L 6.796875 -11.921875 L 10.90625 -1.671875 L 10.96875 -1.65625 C 11.113281 -3.300781 11.234375 -4.46875 11.328125 -5.15625 L 12.203125 -11.140625 L 14.625 -10.796875 Z M 12.796875 1.84375 "/></g></g></g><g fill="#e1ffbb" fill-opacity="1"><g transform="translate(87.843478, 21.157807)"><g><path d="M 13.59375 -2.421875 C 12.945312 -0.421875 11.882812 0.921875 10.40625 1.609375 C 8.925781 2.304688 7.113281 2.304688 4.96875 1.609375 L 1.53125 0.5 L 5.46875 -11.640625 L 9.265625 -10.40625 C 11.253906 -9.757812 12.625 -8.734375 13.375 -7.328125 C 14.132812 -5.929688 14.207031 -4.296875 13.59375 -2.421875 Z M 10.90625 -3.234375 C 11.75 -5.835938 11.019531 -7.507812 8.71875 -8.25 L 7.359375 -8.703125 L 4.796875 -0.796875 L 5.890625 -0.4375 C 8.367188 0.363281 10.039062 -0.566406 10.90625 -3.234375 Z M 10.90625 -3.234375 "/></g></g></g><g fill="#e1ffbb" fill-opacity="1"><g transform="translate(99.695782, 25.213347)"><g/></g></g><g fill="#e1ffbb" fill-opacity="1"><g transform="translate(103.447936, 26.689948)"><g><path d="M 11.421875 -5.75 C 10.535156 -6.257812 9.660156 -6.320312 8.796875 -5.9375 C 7.929688 -5.550781 7.160156 -4.769531 6.484375 -3.59375 C 5.054688 -1.125 5.269531 0.644531 7.125 1.71875 C 7.894531 2.15625 8.945312 2.492188 10.28125 2.734375 L 9.140625 4.703125 C 8.023438 4.566406 6.90625 4.175781 5.78125 3.53125 C 4.175781 2.601562 3.222656 1.40625 2.921875 -0.0625 C 2.628906 -1.53125 3.007812 -3.175781 4.0625 -5 C 4.726562 -6.15625 5.519531 -7.039062 6.4375 -7.65625 C 7.351562 -8.28125 8.335938 -8.597656 9.390625 -8.609375 C 10.441406 -8.617188 11.492188 -8.316406 12.546875 -7.703125 C 13.617188 -7.085938 14.550781 -6.207031 15.34375 -5.0625 L 13.484375 -3.59375 C 13.179688 -4.03125 12.859375 -4.441406 12.515625 -4.828125 C 12.179688 -5.210938 11.816406 -5.519531 11.421875 -5.75 Z M 11.421875 -5.75 "/></g></g></g><g fill="#e1ffbb" fill-opacity="1"><g transform="translate(112.572804, 31.72568)"><g><path d="M 14.265625 3.328125 C 12.941406 4.960938 11.515625 5.890625 9.984375 6.109375 C 8.460938 6.335938 6.941406 5.835938 5.421875 4.609375 C 3.898438 3.390625 3.085938 2.003906 2.984375 0.453125 C 2.878906 -1.097656 3.492188 -2.703125 4.828125 -4.359375 C 6.160156 -5.992188 7.585938 -6.914062 9.109375 -7.125 C 10.640625 -7.332031 12.171875 -6.820312 13.703125 -5.59375 C 15.234375 -4.351562 16.039062 -2.96875 16.125 -1.4375 C 16.21875 0.0820312 15.597656 1.671875 14.265625 3.328125 Z M 7.03125 -2.53125 C 6.144531 -1.425781 5.679688 -0.425781 5.640625 0.46875 C 5.609375 1.375 6.007812 2.164062 6.84375 2.84375 C 8.519531 4.195312 10.257812 3.757812 12.0625 1.53125 C 13.875 -0.707031 13.945312 -2.5 12.28125 -3.84375 C 11.4375 -4.519531 10.570312 -4.75 9.6875 -4.53125 C 8.8125 -4.3125 7.925781 -3.644531 7.03125 -2.53125 Z M 7.03125 -2.53125 "/></g></g></g><g fill="#e1ffbb" fill-opacity="1"><g transform="translate(122.898924, 40.367507)"><g><path d="M 1.59375 -0.140625 C 1.945312 -0.484375 2.304688 -0.644531 2.671875 -0.625 C 3.035156 -0.613281 3.390625 -0.425781 3.734375 -0.0625 C 4.066406 0.269531 4.234375 0.617188 4.234375 0.984375 C 4.242188 1.359375 4.078125 1.710938 3.734375 2.046875 C 3.410156 2.367188 3.054688 2.523438 2.671875 2.515625 C 2.296875 2.503906 1.941406 2.332031 1.609375 2 C 1.273438 1.644531 1.101562 1.28125 1.09375 0.90625 C 1.09375 0.539062 1.257812 0.191406 1.59375 -0.140625 Z M 1.59375 -0.140625 "/></g></g></g></g></g><g transform="matrix(1, 0, 0, 1, 110, 225)"><g clip-path="url(#dbcedeb864)"><g fill="#e1ffbb" fill-opacity="1"><g transform="translate(5.382128, 12.575811)"><g><path d="M 4.5625 5.328125 L 10.171875 -3.53125 L 10.125 -3.578125 C 8.644531 -2.160156 7.648438 -1.234375 7.140625 -0.796875 L 2.625 3.0625 L 1.046875 1.21875 L 10.75 -7.078125 L 13.140625 -4.265625 L 7.6875 4.359375 L 7.71875 4.40625 L 17.21875 0.484375 L 19.609375 3.296875 L 9.90625 11.59375 L 8.265625 9.671875 L 12.859375 5.734375 C 13.078125 5.554688 13.328125 5.347656 13.609375 5.109375 C 13.898438 4.878906 14.679688 4.265625 15.953125 3.265625 L 15.90625 3.21875 L 6.171875 7.203125 Z M 4.5625 5.328125 "/></g></g></g><g fill="#e1ffbb" fill-opacity="1"><g transform="translate(17.308779, 25.95004)"><g><path d="M 6.859375 5.75 L 1.234375 1.03125 L 9.4375 -8.75 L 15.0625 -4.03125 L 13.640625 -2.328125 L 10.078125 -5.3125 L 8.265625 -3.15625 L 11.578125 -0.375 L 10.171875 1.3125 L 6.859375 -1.46875 L 4.734375 1.046875 L 8.296875 4.03125 Z M 6.859375 5.75 "/></g></g></g><g fill="#e1ffbb" fill-opacity="1"><g transform="translate(25.668598, 33.025932)"><g><path d="M 13.78125 0.890625 C 12.675781 2.671875 11.320312 3.722656 9.71875 4.046875 C 8.113281 4.367188 6.351562 3.9375 4.4375 2.75 L 1.375 0.84375 L 8.109375 -10 L 11.5 -7.890625 C 13.269531 -6.785156 14.351562 -5.460938 14.75 -3.921875 C 15.144531 -2.390625 14.820312 -0.785156 13.78125 0.890625 Z M 11.359375 -0.53125 C 12.804688 -2.863281 12.503906 -4.664062 10.453125 -5.9375 L 9.234375 -6.703125 L 4.84375 0.359375 L 5.8125 0.96875 C 8.03125 2.34375 9.878906 1.84375 11.359375 -0.53125 Z M 11.359375 -0.53125 "/></g></g></g><g fill="#e1ffbb" fill-opacity="1"><g transform="translate(37.689551, 40.174615)"><g><path d="M 1.453125 0.6875 L 6.859375 -10.875 L 9.3125 -9.734375 L 3.90625 1.828125 Z M 1.453125 0.6875 "/></g></g></g><g fill="#e1ffbb" fill-opacity="1"><g transform="translate(43.635592, 43.073951)"><g><path d="M 10.125 -7.828125 C 9.15625 -8.160156 8.28125 -8.050781 7.5 -7.5 C 6.726562 -6.957031 6.125 -6.039062 5.6875 -4.75 C 4.757812 -2.0625 5.304688 -0.375 7.328125 0.3125 C 8.171875 0.601562 9.265625 0.75 10.609375 0.75 L 9.875 2.890625 C 8.738281 2.953125 7.5625 2.773438 6.34375 2.359375 C 4.582031 1.753906 3.421875 0.757812 2.859375 -0.625 C 2.296875 -2.007812 2.351562 -3.695312 3.03125 -5.6875 C 3.46875 -6.945312 4.078125 -7.96875 4.859375 -8.75 C 5.640625 -9.53125 6.546875 -10.023438 7.578125 -10.234375 C 8.609375 -10.441406 9.703125 -10.347656 10.859375 -9.953125 C 12.023438 -9.546875 13.101562 -8.859375 14.09375 -7.890625 L 12.5625 -6.09375 C 12.175781 -6.46875 11.78125 -6.8125 11.375 -7.125 C 10.96875 -7.445312 10.550781 -7.679688 10.125 -7.828125 Z M 10.125 -7.828125 "/></g></g></g><g fill="#e1ffbb" fill-opacity="1"><g transform="translate(55.322928, 47.051428)"><g><path d="M 9.265625 1.734375 L 8.921875 -1.421875 L 4.34375 -2.28125 L 2.875 0.53125 L 0 0 L 6.78125 -11.765625 L 10.03125 -11.15625 L 12.125 2.265625 Z M 8.6875 -3.78125 C 8.351562 -6.644531 8.164062 -8.265625 8.125 -8.640625 C 8.082031 -9.015625 8.054688 -9.300781 8.046875 -9.5 C 7.722656 -8.8125 6.847656 -7.109375 5.421875 -4.390625 Z M 8.6875 -3.78125 "/></g></g></g><g fill="#e1ffbb" fill-opacity="1"><g transform="translate(68.349577, 49.347503)"><g><path d="M 1.609375 0.078125 L 2.203125 -12.671875 L 4.90625 -12.546875 L 4.421875 -2.03125 L 9.578125 -1.78125 L 9.46875 0.453125 Z M 1.609375 0.078125 "/></g></g></g><g fill="#e1ffbb" fill-opacity="1"><g transform="translate(79.023098, 49.699813)"><g/></g></g><g fill="#e1ffbb" fill-opacity="1"><g transform="translate(84.312889, 49.603809)"><g><path d="M 5.4375 -11.578125 C 4.425781 -11.429688 3.703125 -10.941406 3.265625 -10.109375 C 2.828125 -9.273438 2.703125 -8.179688 2.890625 -6.828125 C 3.296875 -4.015625 4.550781 -2.757812 6.65625 -3.0625 C 7.550781 -3.1875 8.59375 -3.554688 9.78125 -4.171875 L 10.109375 -1.9375 C 9.128906 -1.351562 8.003906 -0.96875 6.734375 -0.78125 C 4.890625 -0.519531 3.398438 -0.875 2.265625 -1.84375 C 1.128906 -2.820312 0.410156 -4.351562 0.109375 -6.4375 C -0.078125 -7.757812 -0.00390625 -8.945312 0.328125 -10 C 0.671875 -11.0625 1.253906 -11.914062 2.078125 -12.5625 C 2.910156 -13.21875 3.925781 -13.632812 5.125 -13.8125 C 6.351562 -13.988281 7.628906 -13.867188 8.953125 -13.453125 L 8.40625 -11.15625 C 7.894531 -11.300781 7.382812 -11.421875 6.875 -11.515625 C 6.375 -11.617188 5.894531 -11.640625 5.4375 -11.578125 Z M 5.4375 -11.578125 "/></g></g></g><g fill="#e1ffbb" fill-opacity="1"><g transform="translate(96.418725, 47.767856)"><g><path d="M 8.625 -2.421875 L 1.546875 -0.4375 L -1.90625 -12.734375 L 5.171875 -14.71875 L 5.765625 -12.578125 L 1.296875 -11.328125 L 2.0625 -8.625 L 6.203125 -9.78125 L 6.796875 -7.65625 L 2.65625 -6.5 L 3.546875 -3.328125 L 8.015625 -4.578125 Z M 8.625 -2.421875 "/></g></g></g><g fill="#e1ffbb" fill-opacity="1"><g transform="translate(107.045165, 44.881512)"><g><path d="M 11.765625 -5.328125 L 8.640625 -3.90625 L -0.390625 -10.421875 L -0.46875 -10.390625 C 0.34375 -8.878906 0.898438 -7.789062 1.203125 -7.125 L 3.671875 -1.65625 L 1.46875 -0.65625 L -3.796875 -12.28125 L -0.703125 -13.6875 L 8.3125 -7.28125 L 8.375 -7.296875 C 7.59375 -8.773438 7.0625 -9.828125 6.78125 -10.453125 L 4.28125 -15.953125 L 6.5 -16.953125 Z M 11.765625 -5.328125 "/></g></g></g><g fill="#e1ffbb" fill-opacity="1"><g transform="translate(121.090322, 38.270915)"><g><path d="M 5.46875 -3.5625 L 3.203125 -2.09375 L -2.546875 -10.90625 L -5.453125 -9.015625 L -6.671875 -10.890625 L 1.40625 -16.15625 L 2.625 -14.28125 L -0.28125 -12.375 Z M 5.46875 -3.5625 "/></g></g></g><g fill="#e1ffbb" fill-opacity="1"><g transform="translate(130.409142, 32.121468)"><g><path d="M 6.828125 -5.78125 L 1.234375 -1.046875 L -7.015625 -10.78125 L -1.421875 -15.515625 L 0.015625 -13.828125 L -3.515625 -10.828125 L -1.703125 -8.6875 L 1.578125 -11.484375 L 3 -9.796875 L -0.28125 -7 L 1.859375 -4.484375 L 5.390625 -7.484375 Z M 6.828125 -5.78125 "/></g></g></g><g fill="#e1ffbb" fill-opacity="1"><g transform="translate(138.716165, 25.080928)"><g><path d="M -2.375 -7.953125 L -1.796875 -8.609375 C -1.222656 -9.234375 -0.90625 -9.789062 -0.84375 -10.28125 C -0.789062 -10.78125 -0.992188 -11.234375 -1.453125 -11.640625 C -1.898438 -12.046875 -2.351562 -12.179688 -2.8125 -12.046875 C -3.28125 -11.910156 -3.804688 -11.519531 -4.390625 -10.875 L -4.9375 -10.265625 Z M -0.734375 -6.484375 L 2.890625 -3.203125 L 1.078125 -1.203125 L -8.40625 -9.75 L -5.921875 -12.5 C -4.765625 -13.789062 -3.664062 -14.53125 -2.625 -14.71875 C -1.59375 -14.90625 -0.601562 -14.570312 0.34375 -13.71875 C 0.90625 -13.21875 1.265625 -12.617188 1.421875 -11.921875 C 1.578125 -11.234375 1.523438 -10.492188 1.265625 -9.703125 C 4.679688 -9.203125 6.894531 -8.890625 7.90625 -8.765625 L 5.890625 -6.53125 L 0.21875 -7.546875 Z M -0.734375 -6.484375 "/></g></g></g><g fill="#e1ffbb" fill-opacity="1"><g transform="translate(146.891413, 15.695544)"><g/></g></g></g></g></svg>